<svg xmlns="http://www.w3.org/2000/svg" xmlns:xlink="http://www.w3.org/1999/xlink" contentStyleType="text/css" data-diagram-type="CLASS" height="648px" preserveAspectRatio="none" style="width:837px;height:648px;background:#FFFFFF;" version="1.1" viewBox="0 0 837 648" width="837px" zoomAndPan="magnify"><title>Gestor Base de Datos</title><defs/><g><g class="title" data-source-line="1"><text fill="#000000" font-family="sans-serif" font-size="14" font-weight="bold" lengthAdjust="spacing" textLength="170.3311" x="326.5925" y="22.9951">Gestor Base de Datos</text></g><!--class Database--><g class="entity" data-entity="Database" data-source-line="3" data-uid="ent0002" id="entity_Database"><rect fill="#F1F1F1" height="48" rx="2.5" ry="2.5" style="stroke:#181818;stroke-width:0.5;" width="98.8008" x="71.95" y="44.2969"/><ellipse cx="86.95" cy="60.2969" fill="#ADD1B2" rx="11" ry="11" style="stroke:#181818;stroke-width:1;"/><path d="M89.9188,65.9375 Q89.3406,66.2344 88.7,66.375 Q88.0594,66.5313 87.3563,66.5313 Q84.8563,66.5313 83.5281,64.8906 Q82.2156,63.2344 82.2156,60.1094 Q82.2156,56.9844 83.5281,55.3281 Q84.8563,53.6719 87.3563,53.6719 Q88.0594,53.6719 88.7,53.8281 Q89.3563,53.9844 89.9188,54.2813 L89.9188,57 Q89.2938,56.4219 88.7,56.1563 Q88.1063,55.875 87.4813,55.875 Q86.1375,55.875 85.45,56.9531 Q84.7625,58.0156 84.7625,60.1094 Q84.7625,62.2031 85.45,63.2813 Q86.1375,64.3438 87.4813,64.3438 Q88.1063,64.3438 88.7,64.0781 Q89.2938,63.7969 89.9188,63.2188 L89.9188,65.9375 Z " fill="#000000"/><text fill="#000000" font-family="sans-serif" font-size="14" lengthAdjust="spacing" textLength="66.8008" x="100.95" y="65.1436">Database</text><line style="stroke:#181818;stroke-width:0.5;" x1="72.95" x2="169.7508" y1="76.2969" y2="76.2969"/><line style="stroke:#181818;stroke-width:0.5;" x1="72.95" x2="169.7508" y1="84.2969" y2="84.2969"/></g><!--class Schema--><g class="entity" data-entity="Schema" data-source-line="5" data-uid="ent0003" id="entity_Schema"><rect fill="#F1F1F1" height="48" rx="2.5" ry="2.5" style="stroke:#181818;stroke-width:0.5;" width="88.2871" x="135.21" y="169.2969"/><ellipse cx="150.21" cy="185.2969" fill="#ADD1B2" rx="11" ry="11" style="stroke:#181818;stroke-width:1;"/><path d="M153.1788,190.9375 Q152.6006,191.2344 151.96,191.375 Q151.3194,191.5313 150.6163,191.5313 Q148.1163,191.5313 146.7881,189.8906 Q145.4756,188.2344 145.4756,185.1094 Q145.4756,181.9844 146.7881,180.3281 Q148.1163,178.6719 150.6163,178.6719 Q151.3194,178.6719 151.96,178.8281 Q152.6163,178.9844 153.1788,179.2813 L153.1788,182 Q152.5538,181.4219 151.96,181.1563 Q151.3663,180.875 150.7413,180.875 Q149.3975,180.875 148.71,181.9531 Q148.0225,183.0156 148.0225,185.1094 Q148.0225,187.2031 148.71,188.2813 Q149.3975,189.3438 150.7413,189.3438 Q151.3663,189.3438 151.96,189.0781 Q152.5538,188.7969 153.1788,188.2188 L153.1788,190.9375 Z " fill="#000000"/><text fill="#000000" font-family="sans-serif" font-size="14" lengthAdjust="spacing" textLength="56.2871" x="164.21" y="190.1436">Schema</text><line style="stroke:#181818;stroke-width:0.5;" x1="136.21" x2="222.4971" y1="201.2969" y2="201.2969"/><line style="stroke:#181818;stroke-width:0.5;" x1="136.21" x2="222.4971" y1="209.2969" y2="209.2969"/></g><!--class Table--><g class="entity" data-entity="Table" data-source-line="7" data-uid="ent0004" id="entity_Table"><rect fill="#F1F1F1" height="48" rx="2.5" ry="2.5" style="stroke:#181818;stroke-width:0.5;" width="70.5205" x="472.09" y="302.4469"/><ellipse cx="487.09" cy="318.4469" fill="#ADD1B2" rx="11" ry="11" style="stroke:#181818;stroke-width:1;"/><path d="M490.0588,324.0875 Q489.4806,324.3844 488.84,324.525 Q488.1994,324.6813 487.4963,324.6813 Q484.9963,324.6813 483.6681,323.0406 Q482.3556,321.3844 482.3556,318.2594 Q482.3556,315.1344 483.6681,313.4781 Q484.9963,311.8219 487.4963,311.8219 Q488.1994,311.8219 488.84,311.9781 Q489.4963,312.1344 490.0588,312.4313 L490.0588,315.15 Q489.4338,314.5719 488.84,314.3063 Q488.2463,314.025 487.6213,314.025 Q486.2775,314.025 485.59,315.1031 Q484.9025,316.1656 484.9025,318.2594 Q484.9025,320.3531 485.59,321.4313 Q486.2775,322.4938 487.6213,322.4938 Q488.2463,322.4938 488.84,322.2281 Q489.4338,321.9469 490.0588,321.3688 L490.0588,324.0875 Z " fill="#000000"/><text fill="#000000" font-family="sans-serif" font-size="14" lengthAdjust="spacing" textLength="38.5205" x="501.09" y="323.2936">Table</text><line style="stroke:#181818;stroke-width:0.5;" x1="473.09" x2="541.6105" y1="334.4469" y2="334.4469"/><line style="stroke:#181818;stroke-width:0.5;" x1="473.09" x2="541.6105" y1="342.4469" y2="342.4469"/></g><!--class Field--><g class="entity" data-entity="Field" data-source-line="10" data-uid="ent0005" id="entity_Field"><rect fill="#F1F1F1" height="64.2969" rx="2.5" ry="2.5" style="stroke:#181818;stroke-width:0.5;" width="91.8711" x="461.41" y="443.7369"/><ellipse cx="488.3526" cy="459.7369" fill="#ADD1B2" rx="11" ry="11" style="stroke:#181818;stroke-width:1;"/><path d="M491.3213,465.3775 Q490.7432,465.6744 490.1026,465.815 Q489.462,465.9713 488.7588,465.9713 Q486.2588,465.9713 484.9307,464.3306 Q483.6182,462.6744 483.6182,459.5494 Q483.6182,456.4244 484.9307,454.7681 Q486.2588,453.1119 488.7588,453.1119 Q489.462,453.1119 490.1026,453.2681 Q490.7588,453.4244 491.3213,453.7213 L491.3213,456.44 Q490.6963,455.8619 490.1026,455.5963 Q489.5088,455.315 488.8838,455.315 Q487.5401,455.315 486.8526,456.3931 Q486.1651,457.4556 486.1651,459.5494 Q486.1651,461.6431 486.8526,462.7213 Q487.5401,463.7838 488.8838,463.7838 Q489.5088,463.7838 490.1026,463.5181 Q490.6963,463.2369 491.3213,462.6588 L491.3213,465.3775 Z " fill="#000000"/><text fill="#000000" font-family="sans-serif" font-size="14" lengthAdjust="spacing" textLength="33.332" x="505.0065" y="464.5836">Field</text><line style="stroke:#181818;stroke-width:0.5;" x1="462.41" x2="552.2811" y1="475.7369" y2="475.7369"/><rect fill="none" height="6" style="stroke:#C82930;stroke-width:1;" width="6" x="469.41" y="486.3853"/><text fill="#000000" font-family="sans-serif" font-size="14" lengthAdjust="spacing" textLength="65.8711" x="481.41" y="492.732">dataType</text><line style="stroke:#181818;stroke-width:0.5;" x1="462.41" x2="552.2811" y1="500.0338" y2="500.0338"/></g><!--class PrimaryKey--><g class="entity" data-entity="PrimaryKey" data-source-line="14" data-uid="ent0006" id="entity_PrimaryKey"><rect fill="#F1F1F1" height="48" rx="2.5" ry="2.5" style="stroke:#181818;stroke-width:0.5;" width="112.4248" x="186.14" y="593.1869"/><ellipse cx="201.14" cy="609.1869" fill="#ADD1B2" rx="11" ry="11" style="stroke:#181818;stroke-width:1;"/><path d="M204.1088,614.8275 Q203.5306,615.1244 202.89,615.265 Q202.2494,615.4213 201.5463,615.4213 Q199.0463,615.4213 197.7181,613.7806 Q196.4056,612.1244 196.4056,608.9994 Q196.4056,605.8744 197.7181,604.2181 Q199.0463,602.5619 201.5463,602.5619 Q202.2494,602.5619 202.89,602.7181 Q203.5463,602.8744 204.1088,603.1713 L204.1088,605.89 Q203.4838,605.3119 202.89,605.0463 Q202.2963,604.765 201.6713,604.765 Q200.3275,604.765 199.64,605.8431 Q198.9525,606.9056 198.9525,608.9994 Q198.9525,611.0931 199.64,612.1713 Q200.3275,613.2338 201.6713,613.2338 Q202.2963,613.2338 202.89,612.9681 Q203.4838,612.6869 204.1088,612.1088 L204.1088,614.8275 Z " fill="#000000"/><text fill="#000000" font-family="sans-serif" font-size="14" lengthAdjust="spacing" textLength="80.4248" x="215.14" y="614.0336">PrimaryKey</text><line style="stroke:#181818;stroke-width:0.5;" x1="187.14" x2="297.5648" y1="625.1869" y2="625.1869"/><line style="stroke:#181818;stroke-width:0.5;" x1="187.14" x2="297.5648" y1="633.1869" y2="633.1869"/></g><!--class ForeignKey--><g class="entity" data-entity="ForeignKey" data-source-line="16" data-uid="ent0007" id="entity_ForeignKey"><rect fill="#F1F1F1" height="48" rx="2.5" ry="2.5" style="stroke:#181818;stroke-width:0.5;" width="110.7158" x="374.99" y="593.1869"/><ellipse cx="389.99" cy="609.1869" fill="#ADD1B2" rx="11" ry="11" style="stroke:#181818;stroke-width:1;"/><path d="M392.9588,614.8275 Q392.3806,615.1244 391.74,615.265 Q391.0994,615.4213 390.3963,615.4213 Q387.8963,615.4213 386.5681,613.7806 Q385.2556,612.1244 385.2556,608.9994 Q385.2556,605.8744 386.5681,604.2181 Q387.8963,602.5619 390.3963,602.5619 Q391.0994,602.5619 391.74,602.7181 Q392.3963,602.8744 392.9588,603.1713 L392.9588,605.89 Q392.3338,605.3119 391.74,605.0463 Q391.1463,604.765 390.5213,604.765 Q389.1775,604.765 388.49,605.8431 Q387.8025,606.9056 387.8025,608.9994 Q387.8025,611.0931 388.49,612.1713 Q389.1775,613.2338 390.5213,613.2338 Q391.1463,613.2338 391.74,612.9681 Q392.3338,612.6869 392.9588,612.1088 L392.9588,614.8275 Z " fill="#000000"/><text fill="#000000" font-family="sans-serif" font-size="14" lengthAdjust="spacing" textLength="78.7158" x="403.99" y="614.0336">ForeignKey</text><line style="stroke:#181818;stroke-width:0.5;" x1="375.99" x2="484.7058" y1="625.1869" y2="625.1869"/><line style="stroke:#181818;stroke-width:0.5;" x1="375.99" x2="484.7058" y1="633.1869" y2="633.1869"/></g><!--class View--><g class="entity" data-entity="View" data-source-line="18" data-uid="ent0008" id="entity_View"><rect fill="#F1F1F1" height="64.2969" rx="2.5" ry="2.5" style="stroke:#181818;stroke-width:0.5;" width="66.4141" x="62.14" y="443.7369"/><ellipse cx="77.5377" cy="459.7369" fill="#ADD1B2" rx="11" ry="11" style="stroke:#181818;stroke-width:1;"/><path d="M80.5065,465.3775 Q79.9283,465.6744 79.2877,465.815 Q78.6471,465.9713 77.944,465.9713 Q75.444,465.9713 74.1158,464.3306 Q72.8033,462.6744 72.8033,459.5494 Q72.8033,456.4244 74.1158,454.7681 Q75.444,453.1119 77.944,453.1119 Q78.6471,453.1119 79.2877,453.2681 Q79.944,453.4244 80.5065,453.7213 L80.5065,456.44 Q79.8815,455.8619 79.2877,455.5963 Q78.694,455.315 78.069,455.315 Q76.7252,455.315 76.0377,456.3931 Q75.3502,457.4556 75.3502,459.5494 Q75.3502,461.6431 76.0377,462.7213 Q76.7252,463.7838 78.069,463.7838 Q78.694,463.7838 79.2877,463.5181 Q79.8815,463.2369 80.5065,462.6588 L80.5065,465.3775 Z " fill="#000000"/><text fill="#000000" font-family="sans-serif" font-size="14" lengthAdjust="spacing" textLength="33.5303" x="91.6261" y="464.5836">View</text><line style="stroke:#181818;stroke-width:0.5;" x1="63.14" x2="127.5541" y1="475.7369" y2="475.7369"/><rect fill="none" height="6" style="stroke:#C82930;stroke-width:1;" width="6" x="70.14" y="486.3853"/><text fill="#000000" font-family="sans-serif" font-size="14" lengthAdjust="spacing" textLength="40.4141" x="82.14" y="492.732">query</text><line style="stroke:#181818;stroke-width:0.5;" x1="63.14" x2="127.5541" y1="500.0338" y2="500.0338"/></g><!--class User--><g class="entity" data-entity="User" data-source-line="22" data-uid="ent0009" id="entity_User"><rect fill="#F1F1F1" height="48" rx="2.5" ry="2.5" style="stroke:#181818;stroke-width:0.5;" width="63.9102" x="34.39" y="169.2969"/><ellipse cx="49.39" cy="185.2969" fill="#ADD1B2" rx="11" ry="11" style="stroke:#181818;stroke-width:1;"/><path d="M52.3588,190.9375 Q51.7806,191.2344 51.14,191.375 Q50.4994,191.5313 49.7963,191.5313 Q47.2963,191.5313 45.9681,189.8906 Q44.6556,188.2344 44.6556,185.1094 Q44.6556,181.9844 45.9681,180.3281 Q47.2963,178.6719 49.7963,178.6719 Q50.4994,178.6719 51.14,178.8281 Q51.7963,178.9844 52.3588,179.2813 L52.3588,182 Q51.7338,181.4219 51.14,181.1563 Q50.5463,180.875 49.9213,180.875 Q48.5775,180.875 47.89,181.9531 Q47.2025,183.0156 47.2025,185.1094 Q47.2025,187.2031 47.89,188.2813 Q48.5775,189.3438 49.9213,189.3438 Q50.5463,189.3438 51.14,189.0781 Q51.7338,188.7969 52.3588,188.2188 L52.3588,190.9375 Z " fill="#000000"/><text fill="#000000" font-family="sans-serif" font-size="14" lengthAdjust="spacing" textLength="31.9102" x="63.39" y="190.1436">User</text><line style="stroke:#181818;stroke-width:0.5;" x1="35.39" x2="97.3002" y1="201.2969" y2="201.2969"/><line style="stroke:#181818;stroke-width:0.5;" x1="35.39" x2="97.3002" y1="209.2969" y2="209.2969"/></g><!--class Role--><g class="entity" data-entity="Role" data-source-line="24" data-uid="ent0010" id="entity_Role"><rect fill="#F1F1F1" height="64.2969" rx="2.5" ry="2.5" style="stroke:#181818;stroke-width:0.5;" width="102.6992" x="7" y="294.2969"/><ellipse cx="39.9565" cy="310.2969" fill="#ADD1B2" rx="11" ry="11" style="stroke:#181818;stroke-width:1;"/><path d="M42.9252,315.9375 Q42.3471,316.2344 41.7065,316.375 Q41.0659,316.5313 40.3627,316.5313 Q37.8627,316.5313 36.5346,314.8906 Q35.2221,313.2344 35.2221,310.1094 Q35.2221,306.9844 36.5346,305.3281 Q37.8627,303.6719 40.3627,303.6719 Q41.0659,303.6719 41.7065,303.8281 Q42.3627,303.9844 42.9252,304.2813 L42.9252,307 Q42.3002,306.4219 41.7065,306.1563 Q41.1127,305.875 40.4877,305.875 Q39.144,305.875 38.4565,306.9531 Q37.769,308.0156 37.769,310.1094 Q37.769,312.2031 38.4565,313.2813 Q39.144,314.3438 40.4877,314.3438 Q41.1127,314.3438 41.7065,314.0781 Q42.3002,313.7969 42.9252,313.2188 L42.9252,315.9375 Z " fill="#000000"/><text fill="#000000" font-family="sans-serif" font-size="14" lengthAdjust="spacing" textLength="30.7959" x="57.9468" y="315.1436">Role</text><line style="stroke:#181818;stroke-width:0.5;" x1="8" x2="108.6992" y1="326.2969" y2="326.2969"/><rect fill="none" height="6" style="stroke:#C82930;stroke-width:1;" width="6" x="15" y="336.9453"/><text fill="#000000" font-family="sans-serif" font-size="14" lengthAdjust="spacing" textLength="76.6992" x="27" y="343.292">permission</text><line style="stroke:#181818;stroke-width:0.5;" x1="8" x2="108.6992" y1="350.5938" y2="350.5938"/></g><!--class Trigger--><g class="entity" data-entity="Trigger" data-source-line="29" data-uid="ent0011" id="entity_Trigger"><rect fill="#F1F1F1" height="80.5938" rx="2.5" ry="2.5" style="stroke:#181818;stroke-width:0.5;" width="82.3398" x="744.18" y="435.5969"/><ellipse cx="759.18" cy="451.5969" fill="#ADD1B2" rx="11" ry="11" style="stroke:#181818;stroke-width:1;"/><path d="M762.1488,457.2375 Q761.5706,457.5344 760.93,457.675 Q760.2894,457.8312 759.5863,457.8312 Q757.0863,457.8312 755.7581,456.1906 Q754.4456,454.5344 754.4456,451.4094 Q754.4456,448.2844 755.7581,446.6281 Q757.0863,444.9719 759.5863,444.9719 Q760.2894,444.9719 760.93,445.1281 Q761.5863,445.2844 762.1488,445.5812 L762.1488,448.3 Q761.5238,447.7219 760.93,447.4562 Q760.3363,447.175 759.7113,447.175 Q758.3675,447.175 757.68,448.2531 Q756.9925,449.3156 756.9925,451.4094 Q756.9925,453.5031 757.68,454.5812 Q758.3675,455.6437 759.7113,455.6437 Q760.3363,455.6437 760.93,455.3781 Q761.5238,455.0969 762.1488,454.5187 L762.1488,457.2375 Z " fill="#000000"/><text fill="#000000" font-family="sans-serif" font-size="14" lengthAdjust="spacing" textLength="50.3398" x="773.18" y="456.4436">Trigger</text><line style="stroke:#181818;stroke-width:0.5;" x1="745.18" x2="825.5198" y1="467.5969" y2="467.5969"/><rect fill="none" height="6" style="stroke:#C82930;stroke-width:1;" width="6" x="752.18" y="478.2453"/><text fill="#000000" font-family="sans-serif" font-size="14" lengthAdjust="spacing" textLength="39.874" x="764.18" y="484.592">event</text><rect fill="none" height="6" style="stroke:#C82930;stroke-width:1;" width="6" x="752.18" y="494.5422"/><text fill="#000000" font-family="sans-serif" font-size="14" lengthAdjust="spacing" textLength="44.666" x="764.18" y="500.8889">timing</text><line style="stroke:#181818;stroke-width:0.5;" x1="745.18" x2="825.5198" y1="508.1906" y2="508.1906"/></g><!--class Constraint--><g class="entity" data-entity="Constraint" data-source-line="34" data-uid="ent0012" id="entity_Constraint"><rect fill="#F1F1F1" height="48" rx="2.5" ry="2.5" style="stroke:#181818;stroke-width:0.5;" width="104.584" x="546.06" y="593.1869"/><ellipse cx="561.06" cy="609.1869" fill="#ADD1B2" rx="11" ry="11" style="stroke:#181818;stroke-width:1;"/><path d="M564.0288,614.8275 Q563.4506,615.1244 562.81,615.265 Q562.1694,615.4213 561.4663,615.4213 Q558.9663,615.4213 557.6381,613.7806 Q556.3256,612.1244 556.3256,608.9994 Q556.3256,605.8744 557.6381,604.2181 Q558.9663,602.5619 561.4663,602.5619 Q562.1694,602.5619 562.81,602.7181 Q563.4663,602.8744 564.0288,603.1713 L564.0288,605.89 Q563.4038,605.3119 562.81,605.0463 Q562.2163,604.765 561.5913,604.765 Q560.2475,604.765 559.56,605.8431 Q558.8725,606.9056 558.8725,608.9994 Q558.8725,611.0931 559.56,612.1713 Q560.2475,613.2338 561.5913,613.2338 Q562.2163,613.2338 562.81,612.9681 Q563.4038,612.6869 564.0288,612.1088 L564.0288,614.8275 Z " fill="#000000"/><text fill="#000000" font-family="sans-serif" font-size="14" lengthAdjust="spacing" textLength="72.584" x="575.06" y="614.0336">Constraint</text><line style="stroke:#181818;stroke-width:0.5;" x1="547.06" x2="649.644" y1="625.1869" y2="625.1869"/><line style="stroke:#181818;stroke-width:0.5;" x1="547.06" x2="649.644" y1="633.1869" y2="633.1869"/></g><!--link Database to Schema--><g class="link" data-entity-1="Database" data-entity-2="Schema" data-source-line="38" data-uid="lnk13" id="link_Database_Schema"><path codeLine="38" d="M132.4,92.7169 C142.72,114.6069 155.4826,141.6692 165.7826,163.5292" fill="none" id="Database-to-Schema" style="stroke:#181818;stroke-width:1;"/><polygon fill="#181818" points="168.34,168.9569,168.1223,159.1104,166.2088,164.4338,160.8854,162.5203,168.34,168.9569" style="stroke:#181818;stroke-width:1;"/><polygon fill="#000000" points="161.4821,135.3859,160.2835,125.9512,154.9668,128.4576,161.4821,135.3859" style="stroke:#000000;stroke-width:1;"/><text fill="#000000" font-family="sans-serif" font-size="13" lengthAdjust="spacing" textLength="56.2847" x="168.35" y="135.3638">contiene</text></g><!--link Schema to Table--><g class="link" data-entity-1="Schema" data-entity-2="Table" data-source-line="39" data-uid="lnk14" id="link_Schema_Table"><path codeLine="39" d="M223.93,212.1169 C289.79,238.4569 406.1988,284.9993 466.3488,309.0493" fill="none" id="Schema-to-Table" style="stroke:#181818;stroke-width:1;"/><polygon fill="#181818" points="471.92,311.2769,465.0483,304.2214,467.2774,309.4206,462.0782,311.6497,471.92,311.2769" style="stroke:#181818;stroke-width:1;"/><polygon fill="#000000" points="361.9926,257.7197,354.6852,251.6326,352.5029,257.0903,361.9926,257.7197" style="stroke:#000000;stroke-width:1;"/><text fill="#000000" font-family="sans-serif" font-size="13" lengthAdjust="spacing" textLength="40.6758" x="366.35" y="260.3638">define</text></g><!--link Table to Field--><g class="link" data-entity-1="Table" data-entity-2="Field" data-source-line="40" data-uid="lnk15" id="link_Table_Field"><path codeLine="40" d="M507.35,350.8069 C507.35,375.8169 507.35,409.6369 507.35,437.4069" fill="none" id="Table-to-Field" style="stroke:#181818;stroke-width:1;"/><polygon fill="#181818" points="507.35,443.4069,511.35,434.4069,507.35,438.4069,503.35,434.4069,507.35,443.4069" style="stroke:#181818;stroke-width:1;"/><polygon fill="#000000" points="512.35,402.1633,515.2889,393.1182,509.4111,393.1182,512.35,402.1633" style="stroke:#000000;stroke-width:1;"/><text fill="#000000" font-family="sans-serif" font-size="13" lengthAdjust="spacing" textLength="46.541" x="521.35" y="401.6638">incluye</text></g><!--link Table to Constraint--><g class="link" data-entity-1="Table" data-entity-2="Constraint" data-source-line="41" data-uid="lnk16" id="link_Table_Constraint"><path codeLine="41" d="M542.62,350.7869 C555.21,360.9169 568.27,373.8569 576.35,388.5969 C612.89,455.2569 607.8039,543.5807 602.5439,586.8607" fill="none" id="Table-to-Constraint" style="stroke:#181818;stroke-width:1;"/><polygon fill="#181818" points="601.82,592.8169,606.8766,584.3652,602.4232,587.8534,598.935,583.4,601.82,592.8169" style="stroke:#181818;stroke-width:1;"/><polygon fill="#000000" points="611.5802,480.7996,612.2034,471.3095,606.5062,472.7556,611.5802,480.7996" style="stroke:#000000;stroke-width:1;"/><text fill="#000000" font-family="sans-serif" font-size="13" lengthAdjust="spacing" textLength="62.8418" x="619.35" y="480.4538">establece</text></g><!--link Field to Constraint--><g class="link" data-entity-1="Field" data-entity-2="Constraint" data-source-line="42" data-uid="lnk17" id="link_Field_Constraint"><path codeLine="42" d="M506.12,508.1369 C506.82,525.5369 510.1,546.8969 520.35,563.1869 C527.85,575.1069 534.1388,581.6373 545.7988,589.5173" fill="none" id="Field-to-Constraint" style="stroke:#181818;stroke-width:1;"/><polygon fill="#181818" points="550.77,592.8769,545.5529,584.5233,546.6273,590.0772,541.0734,591.1516,550.77,592.8769" style="stroke:#181818;stroke-width:1;"/><polygon fill="#000000" points="527.5413,559.2475,526.2189,549.8294,520.9356,552.4054,527.5413,559.2475" style="stroke:#000000;stroke-width:1;"/><text fill="#000000" font-family="sans-serif" font-size="13" lengthAdjust="spacing" textLength="62.8418" x="534.35" y="559.2538">establece</text></g><!--link Schema to View--><g class="link" data-entity-1="Schema" data-entity-2="View" data-source-line="43" data-uid="lnk18" id="link_Schema_View"><path codeLine="43" d="M180.88,217.6269 C182.59,257.8269 182.13,341.9469 154.35,405.5969 C148.35,419.3469 142.6529,427.9495 132.8629,438.9795" fill="none" id="Schema-to-View" style="stroke:#181818;stroke-width:1;"/><polygon fill="#181818" points="128.88,443.4669,137.8459,439.3911,132.1991,439.7274,131.8628,434.0805,128.88,443.4669" style="stroke:#181818;stroke-width:1;"/><polygon fill="#000000" points="182.29,331.3996,187.0797,323.1832,181.3354,321.9371,182.29,331.3996" style="stroke:#000000;stroke-width:1;"/><text fill="#000000" font-family="sans-serif" font-size="13" lengthAdjust="spacing" textLength="48.1343" x="192.35" y="331.0138">expone</text></g><!--link Database to User--><g class="link" data-entity-1="Database" data-entity-2="User" data-source-line="44" data-uid="lnk19" id="link_Database_User"><path codeLine="44" d="M86.67,92.5469 C77.33,100.7369 68.41,110.8169 63.35,122.2969 C56.92,136.8769 56.8362,148.9549 59.2762,163.0449" fill="none" id="Database-to-User" style="stroke:#181818;stroke-width:1;"/><polygon fill="#181818" points="60.3,168.9569,62.7056,159.4063,59.4468,164.0302,54.823,160.7714,60.3,168.9569" style="stroke:#181818;stroke-width:1;"/><polygon fill="#000000" points="66.539,135.5238,72.5545,128.1573,67.0757,126.0284,66.539,135.5238" style="stroke:#000000;stroke-width:1;"/><text fill="#000000" font-family="sans-serif" font-size="13" lengthAdjust="spacing" textLength="55.8911" x="77.35" y="135.3638">gestiona</text></g><!--link User to Role--><g class="link" data-entity-1="User" data-entity-2="Role" data-source-line="45" data-uid="lnk20" id="link_User_Role"><path codeLine="45" d="M64.92,217.7469 C63.63,238.9669 62.0754,264.398 60.6454,287.838" fill="none" id="User-to-Role" style="stroke:#181818;stroke-width:1;"/><polygon fill="#181818" points="60.28,293.8269,64.8206,285.0872,60.5845,288.8362,56.8355,284.6,60.28,293.8269" style="stroke:#181818;stroke-width:1;"/><polygon fill="#000000" points="68.0456,260.854,71.5297,252.0046,65.6628,251.6468,68.0456,260.854" style="stroke:#000000;stroke-width:1;"/><text fill="#000000" font-family="sans-serif" font-size="13" lengthAdjust="spacing" textLength="38.9746" x="77.35" y="260.3638">posee</text></g><!--link Role to View--><g class="link" data-entity-1="Role" data-entity-2="View" data-source-line="46" data-uid="lnk21" id="link_Role_View"><path codeLine="46" d="M66.29,359.0769 C72.53,383.9569 79.7293,412.6274 85.9693,437.4874" fill="none" id="Role-to-View" style="stroke:#181818;stroke-width:1;"/><polygon fill="#181818" points="87.43,443.3069,89.1186,433.6038,86.2127,438.4573,81.3593,435.5515,87.43,443.3069" style="stroke:#181818;stroke-width:1;"/><polygon fill="#000000" points="84.5671,402.0129,85.2158,392.5245,79.5148,393.9553,84.5671,402.0129" style="stroke:#000000;stroke-width:1;"/><text fill="#000000" font-family="sans-serif" font-size="13" lengthAdjust="spacing" textLength="53.0029" x="92.35" y="401.6638">autoriza</text></g><!--reverse link Field to PrimaryKey--><g class="link" data-entity-1="Field" data-entity-2="PrimaryKey" data-source-line="47" data-uid="lnk22" id="link_Field_PrimaryKey"><path codeLine="47" d="M445.2035,510.4457 C436.3435,515.2057 443,511.6069 434.35,516.1869 C384.36,542.6569 326.79,572.5669 287.83,592.7169" fill="none" id="Field-backto-PrimaryKey" style="stroke:#181818;stroke-width:1;"/><polygon fill="none" points="461.06,501.9269,442.3639,505.1602,448.0431,515.7312,461.06,501.9269" style="stroke:#181818;stroke-width:1;"/></g><!--reverse link Field to ForeignKey--><g class="link" data-entity-1="Field" data-entity-2="ForeignKey" data-source-line="48" data-uid="lnk23" id="link_Field_ForeignKey"><path codeLine="48" d="M481.1723,524.2505 C466.9723,549.9405 455.98,569.8269 443.19,592.9469" fill="none" id="Field-backto-ForeignKey" style="stroke:#181818;stroke-width:1;"/><polygon fill="none" points="489.88,508.4969,475.9211,521.3479,486.4235,527.153,489.88,508.4969" style="stroke:#181818;stroke-width:1;"/></g><!--link Table to PrimaryKey--><g class="link" data-entity-1="Table" data-entity-2="PrimaryKey" data-source-line="49" data-uid="lnk24" id="link_Table_PrimaryKey"><path codeLine="49" d="M471.89,334.9669 C423.02,347.2469 335.76,376.4169 289.35,435.5969 C252.46,482.6269 244.598,549.6729 242.938,586.8029" fill="none" id="Table-to-PrimaryKey" style="stroke:#181818;stroke-width:1;"/><polygon fill="#181818" points="242.67,592.7969,247.068,583.9845,242.8933,587.8019,239.076,583.6272,242.67,592.7969" style="stroke:#181818;stroke-width:1;"/><polygon fill="#000000" points="290.9866,479.6529,299.2457,474.9372,294.8965,470.9832,290.9866,479.6529" style="stroke:#000000;stroke-width:1;"/><text fill="#000000" font-family="sans-serif" font-size="13" lengthAdjust="spacing" textLength="40.6758" x="303.35" y="480.4538">define</text></g><!--link ForeignKey to Table--><g class="link" data-entity-1="ForeignKey" data-entity-2="Table" data-source-line="50" data-uid="lnk25" id="link_ForeignKey_Table"><path codeLine="50" d="M408.79,592.8369 C392.77,573.7969 372.22,545.3769 363.35,516.1869 C352.93,481.9169 347.34,467.6369 363.35,435.5969 C385.85,390.5669 431.6025,362.0174 466.4725,345.0874" fill="none" id="ForeignKey-to-Table" style="stroke:#181818;stroke-width:1;"/><polygon fill="#181818" points="471.87,342.4669,462.0268,342.7994,467.3721,344.6507,465.5208,349.996,471.87,342.4669" style="stroke:#181818;stroke-width:1;"/><polygon fill="#000000" points="369.4838,471.0835,364.5704,479.2266,370.2951,480.5594,369.4838,471.0835" style="stroke:#000000;stroke-width:1;"/><text fill="#000000" font-family="sans-serif" font-size="13" lengthAdjust="spacing" textLength="66.2251" x="377.35" y="480.4538">referencia</text></g><!--link Table to Trigger--><g class="link" data-entity-1="Table" data-entity-2="Trigger" data-source-line="51" data-uid="lnk26" id="link_Table_Trigger"><path codeLine="51" d="M543.05,332.0169 C603.96,340.4869 724.37,360.3669 755.35,388.5969 C768.6,400.6669 774.5514,413.0744 778.6814,429.6744" fill="none" id="Table-to-Trigger" style="stroke:#181818;stroke-width:1;"/><polygon fill="#181818" points="780.13,435.4969,781.8388,425.7974,778.9228,430.6448,774.0754,427.7289,780.13,435.4969" style="stroke:#181818;stroke-width:1;"/><polygon fill="#000000" points="776.969,399.0776,769.7384,392.8996,767.4879,398.3295,776.969,399.0776" style="stroke:#000000;stroke-width:1;"/><text fill="#000000" font-family="sans-serif" font-size="13" lengthAdjust="spacing" textLength="48.166" x="781.35" y="401.6638">dispara</text></g><!--link Trigger to Table--><g class="link" data-entity-1="Trigger" data-entity-2="Table" data-source-line="52" data-uid="lnk27" id="link_Trigger_Table"><path codeLine="52" d="M743.86,448.0769 C715.71,430.3269 677.38,407.0169 642.35,388.5969 C609.33,371.2269 575.9187,356.2714 548.3787,344.5214" fill="none" id="Trigger-to-Table" style="stroke:#181818;stroke-width:1;"/><polygon fill="#181818" points="542.86,342.1669,549.5683,349.3779,547.4589,344.129,552.7078,342.0196,542.86,342.1669" style="stroke:#181818;stroke-width:1;"/><polygon fill="#000000" points="670.9317,394.8227,677.5487,401.6539,680.3003,396.4598,670.9317,394.8227" style="stroke:#000000;stroke-width:1;"/><text fill="#000000" font-family="sans-serif" font-size="13" lengthAdjust="spacing" textLength="58.4302" x="684.35" y="401.6638">actualiza</text></g><!--SRC=[VLAxKiGm3Epp5Vg1_827kGAOew1X8D3h75tGJ687sm72mRzZEo-5WYxUNQsaLIeEBS4T-M0TNACdg0bkCLXV5Bf5xzC3JucumC-2FUbNwb0Y5PwYpwLOWIDJMqS0e8GwMbHZJnlxuBX3DzxJA4sErX4tvW_wmlGn6xqDvCRDvTcJayf7csT8ofvSnzwpDKc-3EcuQL99bj0xcP2_0dTicittnXeV7B89qqR5ca5P7fRb5MXh0fCXE1GpbkWf2HLpF7Fc9Y1HKoOAsEXs6FVSrbD1l4R2TL9CDVyfHEySLMG_UvjRx-PEQIbeOcbC1IERuqjCpar1RpsbglmKTZZ4duE_S9tcwhiinGabkfrGx2QkBN8HrvQvEJgJ8wCPT_aijui6x7jqcPqnMOuw3DZcQNy1]--></g></svg>