<svg xmlns="http://www.w3.org/2000/svg" xmlns:xlink="http://www.w3.org/1999/xlink" contentStyleType="text/css" data-diagram-type="CLASS" height="1023px" preserveAspectRatio="none" style="width:1804px;height:1023px;background:#FFFFFF;" version="1.1" viewBox="0 0 1804 1023" width="1804px" zoomAndPan="magnify"><title>Diagrama de Clases - Errores y anotaciones</title><defs/><g><g class="title" data-source-line="1"><text fill="#000000" font-family="sans-serif" font-size="14" font-weight="bold" lengthAdjust="spacing" textLength="344.0596" x="723.2151" y="22.9951">Diagrama de Clases - Errores y anotaciones</text></g><!--class Database--><g class="entity" data-entity="Database" data-source-line="3" data-uid="ent0002" id="entity_Database"><rect fill="#F1F1F1" height="48" rx="2.5" ry="2.5" style="stroke:#181818;stroke-width:0.5;" width="133.1992" x="744.98" y="44.2969"/><ellipse cx="759.98" cy="60.2969" fill="#ADD1B2" rx="11" ry="11" style="stroke:#181818;stroke-width:1;"/><path d="M762.9488,65.9375 Q762.3706,66.2344 761.73,66.375 Q761.0894,66.5313 760.3863,66.5313 Q757.8863,66.5313 756.5581,64.8906 Q755.2456,63.2344 755.2456,60.1094 Q755.2456,56.9844 756.5581,55.3281 Q757.8863,53.6719 760.3863,53.6719 Q761.0894,53.6719 761.73,53.8281 Q762.3863,53.9844 762.9488,54.2813 L762.9488,57 Q762.3238,56.4219 761.73,56.1563 Q761.1363,55.875 760.5113,55.875 Q759.1675,55.875 758.48,56.9531 Q757.7925,58.0156 757.7925,60.1094 Q757.7925,62.2031 758.48,63.2813 Q759.1675,64.3438 760.5113,64.3438 Q761.1363,64.3438 761.73,64.0781 Q762.3238,63.7969 762.9488,63.2188 L762.9488,65.9375 Z " fill="#000000"/><text fill="#000000" font-family="sans-serif" font-size="14" lengthAdjust="spacing" textLength="101.1992" x="773.98" y="65.1436">Base de Datos</text><line style="stroke:#181818;stroke-width:0.5;" x1="745.98" x2="877.1792" y1="76.2969" y2="76.2969"/><line style="stroke:#181818;stroke-width:0.5;" x1="745.98" x2="877.1792" y1="84.2969" y2="84.2969"/></g><!--class Schema--><g class="entity" data-entity="Schema" data-source-line="5" data-uid="ent0003" id="entity_Schema"><rect fill="#F1F1F1" height="48" rx="2.5" ry="2.5" style="stroke:#181818;stroke-width:0.5;" width="88.2871" x="493.44" y="169.2969"/><ellipse cx="508.44" cy="185.2969" fill="#ADD1B2" rx="11" ry="11" style="stroke:#181818;stroke-width:1;"/><path d="M511.4088,190.9375 Q510.8306,191.2344 510.19,191.375 Q509.5494,191.5313 508.8463,191.5313 Q506.3463,191.5313 505.0181,189.8906 Q503.7056,188.2344 503.7056,185.1094 Q503.7056,181.9844 505.0181,180.3281 Q506.3463,178.6719 508.8463,178.6719 Q509.5494,178.6719 510.19,178.8281 Q510.8463,178.9844 511.4088,179.2813 L511.4088,182 Q510.7838,181.4219 510.19,181.1563 Q509.5963,180.875 508.9713,180.875 Q507.6275,180.875 506.94,181.9531 Q506.2525,183.0156 506.2525,185.1094 Q506.2525,187.2031 506.94,188.2813 Q507.6275,189.3438 508.9713,189.3438 Q509.5963,189.3438 510.19,189.0781 Q510.7838,188.7969 511.4088,188.2188 L511.4088,190.9375 Z " fill="#000000"/><text fill="#000000" font-family="sans-serif" font-size="14" lengthAdjust="spacing" textLength="56.2871" x="522.44" y="190.1436">Schema</text><line style="stroke:#181818;stroke-width:0.5;" x1="494.44" x2="580.7271" y1="201.2969" y2="201.2969"/><line style="stroke:#181818;stroke-width:0.5;" x1="494.44" x2="580.7271" y1="209.2969" y2="209.2969"/></g><g class="entity" data-entity="GMN4" data-source-line="8" data-uid="ent0005" id="entity_GMN4"><path d="M616.62,180.7269 L616.62,189.2969 L582.04,193.2969 L616.62,197.2969 L616.62,205.8597 A0,0 0 0 0 616.62,205.8597 L1020.5424,205.8597 A0,0 0 0 0 1020.5424,205.8597 L1020.5424,190.7269 L1010.5424,180.7269 L616.62,180.7269 A0,0 0 0 0 616.62,180.7269" fill="#FEFFDD" style="stroke:#181818;stroke-width:0.5;"/><path d="M1010.5424,180.7269 L1010.5424,190.7269 L1020.5424,190.7269 L1010.5424,180.7269" fill="#FEFFDD" style="stroke:#181818;stroke-width:0.5;"/><text fill="#000000" font-family="sans-serif" font-size="13" lengthAdjust="spacing" textLength="382.9224" x="622.62" y="197.7938">El schema define tablas. Adem&#225;s es quien expone la vista.</text></g><!--class User--><g class="entity" data-entity="User" data-source-line="12" data-uid="ent0007" id="entity_User"><rect fill="#F1F1F1" height="48" rx="2.5" ry="2.5" style="stroke:#181818;stroke-width:0.5;" width="63.9102" x="1055.63" y="169.2969"/><ellipse cx="1070.63" cy="185.2969" fill="#ADD1B2" rx="11" ry="11" style="stroke:#181818;stroke-width:1;"/><path d="M1073.5988,190.9375 Q1073.0206,191.2344 1072.38,191.375 Q1071.7394,191.5313 1071.0363,191.5313 Q1068.5363,191.5313 1067.2081,189.8906 Q1065.8956,188.2344 1065.8956,185.1094 Q1065.8956,181.9844 1067.2081,180.3281 Q1068.5363,178.6719 1071.0363,178.6719 Q1071.7394,178.6719 1072.38,178.8281 Q1073.0363,178.9844 1073.5988,179.2813 L1073.5988,182 Q1072.9738,181.4219 1072.38,181.1563 Q1071.7863,180.875 1071.1613,180.875 Q1069.8175,180.875 1069.13,181.9531 Q1068.4425,183.0156 1068.4425,185.1094 Q1068.4425,187.2031 1069.13,188.2813 Q1069.8175,189.3438 1071.1613,189.3438 Q1071.7863,189.3438 1072.38,189.0781 Q1072.9738,188.7969 1073.5988,188.2188 L1073.5988,190.9375 Z " fill="#000000"/><text fill="#000000" font-family="sans-serif" font-size="14" lengthAdjust="spacing" textLength="31.9102" x="1084.63" y="190.1436">User</text><line style="stroke:#181818;stroke-width:0.5;" x1="1056.63" x2="1118.5402" y1="201.2969" y2="201.2969"/><line style="stroke:#181818;stroke-width:0.5;" x1="1056.63" x2="1118.5402" y1="209.2969" y2="209.2969"/></g><g class="entity" data-entity="GMN8" data-source-line="15" data-uid="ent0009" id="entity_GMN8"><path d="M1154.83,180.7269 L1154.83,189.2969 L1119.87,193.2969 L1154.83,197.2969 L1154.83,205.8597 A0,0 0 0 0 1154.83,205.8597 L1688.3271,205.8597 A0,0 0 0 0 1688.3271,205.8597 L1688.3271,190.7269 L1678.3271,180.7269 L1154.83,180.7269 A0,0 0 0 0 1154.83,180.7269" fill="#FEFFDD" style="stroke:#181818;stroke-width:0.5;"/><path d="M1678.3271,180.7269 L1678.3271,190.7269 L1688.3271,190.7269 L1678.3271,180.7269" fill="#FEFFDD" style="stroke:#181818;stroke-width:0.5;"/><text fill="#000000" font-family="sans-serif" font-size="13" lengthAdjust="spacing" textLength="512.4971" x="1160.83" y="197.7938">Los usuarios acceden a las tablas. En jerarqu&#237;a las tablas no "tienen" usuarios.</text></g><!--class Role--><g class="entity" data-entity="Role" data-source-line="19" data-uid="ent0011" id="entity_Role"><rect fill="#F1F1F1" height="64.2969" rx="2.5" ry="2.5" style="stroke:#181818;stroke-width:0.5;" width="102.6992" x="917.23" y="294.2969"/><ellipse cx="950.1865" cy="310.2969" fill="#ADD1B2" rx="11" ry="11" style="stroke:#181818;stroke-width:1;"/><path d="M953.1552,315.9375 Q952.5771,316.2344 951.9365,316.375 Q951.2959,316.5313 950.5927,316.5313 Q948.0927,316.5313 946.7646,314.8906 Q945.4521,313.2344 945.4521,310.1094 Q945.4521,306.9844 946.7646,305.3281 Q948.0927,303.6719 950.5927,303.6719 Q951.2959,303.6719 951.9365,303.8281 Q952.5927,303.9844 953.1552,304.2813 L953.1552,307 Q952.5302,306.4219 951.9365,306.1563 Q951.3427,305.875 950.7177,305.875 Q949.374,305.875 948.6865,306.9531 Q947.999,308.0156 947.999,310.1094 Q947.999,312.2031 948.6865,313.2813 Q949.374,314.3438 950.7177,314.3438 Q951.3427,314.3438 951.9365,314.0781 Q952.5302,313.7969 953.1552,313.2188 L953.1552,315.9375 Z " fill="#000000"/><text fill="#000000" font-family="sans-serif" font-size="14" lengthAdjust="spacing" textLength="30.7959" x="968.1768" y="315.1436">Role</text><line style="stroke:#181818;stroke-width:0.5;" x1="918.23" x2="1018.9292" y1="326.2969" y2="326.2969"/><rect fill="none" height="6" style="stroke:#C82930;stroke-width:1;" width="6" x="925.23" y="336.9453"/><text fill="#000000" font-family="sans-serif" font-size="14" lengthAdjust="spacing" textLength="76.6992" x="937.23" y="343.292">permission</text><line style="stroke:#181818;stroke-width:0.5;" x1="918.23" x2="1018.9292" y1="350.5938" y2="350.5938"/></g><!--class View--><g class="entity" data-entity="View" data-source-line="24" data-uid="ent0012" id="entity_View"><rect fill="#F1F1F1" height="48" rx="2.5" ry="2.5" style="stroke:#181818;stroke-width:0.5;" width="65.5303" x="1054.82" y="302.4469"/><ellipse cx="1069.82" cy="318.4469" fill="#ADD1B2" rx="11" ry="11" style="stroke:#181818;stroke-width:1;"/><path d="M1072.7888,324.0875 Q1072.2106,324.3844 1071.57,324.525 Q1070.9294,324.6813 1070.2263,324.6813 Q1067.7263,324.6813 1066.3981,323.0406 Q1065.0856,321.3844 1065.0856,318.2594 Q1065.0856,315.1344 1066.3981,313.4781 Q1067.7263,311.8219 1070.2263,311.8219 Q1070.9294,311.8219 1071.57,311.9781 Q1072.2263,312.1344 1072.7888,312.4313 L1072.7888,315.15 Q1072.1638,314.5719 1071.57,314.3063 Q1070.9763,314.025 1070.3513,314.025 Q1069.0075,314.025 1068.32,315.1031 Q1067.6325,316.1656 1067.6325,318.2594 Q1067.6325,320.3531 1068.32,321.4313 Q1069.0075,322.4938 1070.3513,322.4938 Q1070.9763,322.4938 1071.57,322.2281 Q1072.1638,321.9469 1072.7888,321.3688 L1072.7888,324.0875 Z " fill="#000000"/><text fill="#000000" font-family="sans-serif" font-size="14" lengthAdjust="spacing" textLength="33.5303" x="1083.82" y="323.2936">View</text><line style="stroke:#181818;stroke-width:0.5;" x1="1055.82" x2="1119.3503" y1="334.4469" y2="334.4469"/><line style="stroke:#181818;stroke-width:0.5;" x1="1055.82" x2="1119.3503" y1="342.4469" y2="342.4469"/></g><g class="entity" data-entity="GMN13" data-source-line="27" data-uid="ent0014" id="entity_GMN13"><path d="M1155.67,313.8769 L1155.67,322.4469 L1120.63,326.4469 L1155.67,330.4469 L1155.67,339.0097 A0,0 0 0 0 1155.67,339.0097 L1797.4898,339.0097 A0,0 0 0 0 1797.4898,339.0097 L1797.4898,323.8769 L1787.4898,313.8769 L1155.67,313.8769 A0,0 0 0 0 1155.67,313.8769" fill="#FEFFDD" style="stroke:#181818;stroke-width:0.5;"/><path d="M1787.4898,313.8769 L1787.4898,323.8769 L1797.4898,323.8769 L1787.4898,313.8769" fill="#FEFFDD" style="stroke:#181818;stroke-width:0.5;"/><text fill="#000000" font-family="sans-serif" font-size="13" lengthAdjust="spacing" textLength="620.8198" x="1161.67" y="330.9438">Quien interactua directamente con la vista, no es simplemente el usuario, si no su rol tambi&#233;n.</text></g><!--class Table--><g class="entity" data-entity="Table" data-source-line="30" data-uid="ent0016" id="entity_Table"><rect fill="#F1F1F1" height="48" rx="2.5" ry="2.5" style="stroke:#181818;stroke-width:0.5;" width="70.5205" x="668.32" y="435.5969"/><ellipse cx="683.32" cy="451.5969" fill="#ADD1B2" rx="11" ry="11" style="stroke:#181818;stroke-width:1;"/><path d="M686.2888,457.2375 Q685.7106,457.5344 685.07,457.675 Q684.4294,457.8312 683.7263,457.8312 Q681.2263,457.8312 679.8981,456.1906 Q678.5856,454.5344 678.5856,451.4094 Q678.5856,448.2844 679.8981,446.6281 Q681.2263,444.9719 683.7263,444.9719 Q684.4294,444.9719 685.07,445.1281 Q685.7263,445.2844 686.2888,445.5812 L686.2888,448.3 Q685.6638,447.7219 685.07,447.4562 Q684.4763,447.175 683.8513,447.175 Q682.5075,447.175 681.82,448.2531 Q681.1325,449.3156 681.1325,451.4094 Q681.1325,453.5031 681.82,454.5812 Q682.5075,455.6437 683.8513,455.6437 Q684.4763,455.6437 685.07,455.3781 Q685.6638,455.0969 686.2888,454.5187 L686.2888,457.2375 Z " fill="#000000"/><text fill="#000000" font-family="sans-serif" font-size="14" lengthAdjust="spacing" textLength="38.5205" x="697.32" y="456.4436">Table</text><line style="stroke:#181818;stroke-width:0.5;" x1="669.32" x2="737.8405" y1="467.5969" y2="467.5969"/><line style="stroke:#181818;stroke-width:0.5;" x1="669.32" x2="737.8405" y1="475.5969" y2="475.5969"/></g><!--class ForeignKey--><g class="entity" data-entity="ForeignKey" data-source-line="33" data-uid="ent0017" id="entity_ForeignKey"><rect fill="#F1F1F1" height="48" rx="2.5" ry="2.5" style="stroke:#181818;stroke-width:0.5;" width="115.166" x="7" y="560.5969"/><ellipse cx="22" cy="576.5969" fill="#ADD1B2" rx="11" ry="11" style="stroke:#181818;stroke-width:1;"/><path d="M24.9688,582.2375 Q24.3906,582.5344 23.75,582.675 Q23.1094,582.8313 22.4063,582.8313 Q19.9063,582.8313 18.5781,581.1906 Q17.2656,579.5344 17.2656,576.4094 Q17.2656,573.2844 18.5781,571.6281 Q19.9063,569.9719 22.4063,569.9719 Q23.1094,569.9719 23.75,570.1281 Q24.4063,570.2844 24.9688,570.5813 L24.9688,573.3 Q24.3438,572.7219 23.75,572.4563 Q23.1563,572.175 22.5313,572.175 Q21.1875,572.175 20.5,573.2531 Q19.8125,574.3156 19.8125,576.4094 Q19.8125,578.5031 20.5,579.5813 Q21.1875,580.6438 22.5313,580.6438 Q23.1563,580.6438 23.75,580.3781 Q24.3438,580.0969 24.9688,579.5188 L24.9688,582.2375 Z " fill="#000000"/><text fill="#000000" font-family="sans-serif" font-size="14" lengthAdjust="spacing" textLength="83.166" x="36" y="581.4436">Foreign Key</text><line style="stroke:#181818;stroke-width:0.5;" x1="8" x2="121.166" y1="592.5969" y2="592.5969"/><line style="stroke:#181818;stroke-width:0.5;" x1="8" x2="121.166" y1="600.5969" y2="600.5969"/></g><g class="entity" data-entity="GMN18" data-source-line="36" data-uid="ent0019" id="entity_GMN18"><path d="M157.52,572.0269 L157.52,580.5969 L122.44,584.5969 L157.52,588.5969 L157.52,597.1597 A0,0 0 0 0 157.52,597.1597 L633.647,597.1597 A0,0 0 0 0 633.647,597.1597 L633.647,582.0269 L623.647,572.0269 L157.52,572.0269 A0,0 0 0 0 157.52,572.0269" fill="#FEFFDD" style="stroke:#181818;stroke-width:0.5;"/><path d="M623.647,572.0269 L623.647,582.0269 L633.647,582.0269 L623.647,572.0269" fill="#FEFFDD" style="stroke:#181818;stroke-width:0.5;"/><text fill="#000000" font-family="sans-serif" font-size="13" lengthAdjust="spacing" textLength="455.127" x="163.52" y="589.0938">El foreign key es quien referencia la tabla. Adem&#225;s hereda de campo.</text></g><!--class PrimaryKey--><g class="entity" data-entity="PrimaryKey" data-source-line="40" data-uid="ent0021" id="entity_PrimaryKey"><rect fill="#F1F1F1" height="48" rx="2.5" ry="2.5" style="stroke:#181818;stroke-width:0.5;" width="116.875" x="144.15" y="685.5969"/><ellipse cx="159.15" cy="701.5969" fill="#ADD1B2" rx="11" ry="11" style="stroke:#181818;stroke-width:1;"/><path d="M162.1188,707.2375 Q161.5406,707.5344 160.9,707.675 Q160.2594,707.8313 159.5563,707.8313 Q157.0563,707.8313 155.7281,706.1906 Q154.4156,704.5344 154.4156,701.4094 Q154.4156,698.2844 155.7281,696.6281 Q157.0563,694.9719 159.5563,694.9719 Q160.2594,694.9719 160.9,695.1281 Q161.5563,695.2844 162.1188,695.5813 L162.1188,698.3 Q161.4938,697.7219 160.9,697.4563 Q160.3063,697.175 159.6813,697.175 Q158.3375,697.175 157.65,698.2531 Q156.9625,699.3156 156.9625,701.4094 Q156.9625,703.5031 157.65,704.5813 Q158.3375,705.6438 159.6813,705.6438 Q160.3063,705.6438 160.9,705.3781 Q161.4938,705.0969 162.1188,704.5188 L162.1188,707.2375 Z " fill="#000000"/><text fill="#000000" font-family="sans-serif" font-size="14" lengthAdjust="spacing" textLength="84.875" x="173.15" y="706.4436">Primary Key</text><line style="stroke:#181818;stroke-width:0.5;" x1="145.15" x2="260.025" y1="717.5969" y2="717.5969"/><line style="stroke:#181818;stroke-width:0.5;" x1="145.15" x2="260.025" y1="725.5969" y2="725.5969"/></g><g class="entity" data-entity="GMN22" data-source-line="43" data-uid="ent0023" id="entity_GMN22"><path d="M296.3,697.0269 L296.3,705.5969 L261.41,709.5969 L296.3,713.5969 L296.3,722.1597 A0,0 0 0 0 296.3,722.1597 L1042.8688,722.1597 A0,0 0 0 0 1042.8688,722.1597 L1042.8688,707.0269 L1032.8688,697.0269 L296.3,697.0269 A0,0 0 0 0 296.3,697.0269" fill="#FEFFDD" style="stroke:#181818;stroke-width:0.5;"/><path d="M1032.8688,697.0269 L1032.8688,707.0269 L1042.8688,707.0269 L1032.8688,697.0269" fill="#FEFFDD" style="stroke:#181818;stroke-width:0.5;"/><text fill="#000000" font-family="sans-serif" font-size="13" lengthAdjust="spacing" textLength="725.5688" x="302.3" y="714.0938">La tabla es quien define la primary key. Tambi&#233;n hereda de campo y su relaci&#243;n con foreign key esta impl&#237;cita.</text></g><!--class Field--><g class="entity" data-entity="Field" data-source-line="47" data-uid="ent0025" id="entity_Field"><rect fill="#F1F1F1" height="80.5938" rx="2.5" ry="2.5" style="stroke:#181818;stroke-width:0.5;" width="96.5059" x="154.33" y="810.5969"/><ellipse cx="183.3582" cy="826.5969" fill="#ADD1B2" rx="11" ry="11" style="stroke:#181818;stroke-width:1;"/><path d="M186.327,832.2375 Q185.7488,832.5344 185.1082,832.675 Q184.4676,832.8313 183.7645,832.8313 Q181.2645,832.8313 179.9363,831.1906 Q178.6238,829.5344 178.6238,826.4094 Q178.6238,823.2844 179.9363,821.6281 Q181.2645,819.9719 183.7645,819.9719 Q184.4676,819.9719 185.1082,820.1281 Q185.7645,820.2844 186.327,820.5813 L186.327,823.3 Q185.702,822.7219 185.1082,822.4563 Q184.5145,822.175 183.8895,822.175 Q182.5457,822.175 181.8582,823.2531 Q181.1707,824.3156 181.1707,826.4094 Q181.1707,828.5031 181.8582,829.5813 Q182.5457,830.6438 183.8895,830.6438 Q184.5145,830.6438 185.1082,830.3781 Q185.702,830.0969 186.327,829.5188 L186.327,832.2375 Z " fill="#000000"/><text fill="#000000" font-family="sans-serif" font-size="14" lengthAdjust="spacing" textLength="33.332" x="200.4756" y="831.4436">Field</text><line style="stroke:#181818;stroke-width:0.5;" x1="155.33" x2="249.8359" y1="842.5969" y2="842.5969"/><rect fill="none" height="6" style="stroke:#C82930;stroke-width:1;" width="6" x="162.33" y="853.2453"/><text fill="#000000" font-family="sans-serif" font-size="14" lengthAdjust="spacing" textLength="38.5479" x="174.33" y="859.592">index</text><rect fill="none" height="6" style="stroke:#C82930;stroke-width:1;" width="6" x="162.33" y="869.5422"/><text fill="#000000" font-family="sans-serif" font-size="14" lengthAdjust="spacing" textLength="70.5059" x="174.33" y="875.8889">constraint</text><line style="stroke:#181818;stroke-width:0.5;" x1="155.33" x2="249.8359" y1="883.1906" y2="883.1906"/></g><g class="entity" data-entity="GMN26" data-source-line="53" data-uid="ent0027" id="entity_GMN26"><path d="M285.76,838.3269 L285.76,846.8869 L251.18,850.8869 L285.76,854.8869 L285.76,863.4597 A0,0 0 0 0 285.76,863.4597 L1231.404,863.4597 A0,0 0 0 0 1231.404,863.4597 L1231.404,848.3269 L1221.404,838.3269 L285.76,838.3269 A0,0 0 0 0 285.76,838.3269" fill="#FEFFDD" style="stroke:#181818;stroke-width:0.5;"/><path d="M1221.404,838.3269 L1221.404,848.3269 L1231.404,848.3269 L1221.404,838.3269" fill="#FEFFDD" style="stroke:#181818;stroke-width:0.5;"/><text fill="#000000" font-family="sans-serif" font-size="13" lengthAdjust="spacing" textLength="924.644" x="291.76" y="855.3938">El campo no deber&#237;a tener index y constraint como atributos. Constraint deber&#237;a ser una clase, porque se usa tanto en campo como en tabla.</text></g><!--class DataType--><g class="entity" data-entity="DataType" data-source-line="57" data-uid="ent0029" id="entity_DataType"><rect fill="#F1F1F1" height="48" rx="2.5" ry="2.5" style="stroke:#181818;stroke-width:0.5;" width="99.7646" x="152.7" y="968.1869"/><ellipse cx="167.7" cy="984.1869" fill="#ADD1B2" rx="11" ry="11" style="stroke:#181818;stroke-width:1;"/><path d="M170.6688,989.8275 Q170.0906,990.1244 169.45,990.265 Q168.8094,990.4213 168.1063,990.4213 Q165.6063,990.4213 164.2781,988.7806 Q162.9656,987.1244 162.9656,983.9994 Q162.9656,980.8744 164.2781,979.2181 Q165.6063,977.5619 168.1063,977.5619 Q168.8094,977.5619 169.45,977.7181 Q170.1063,977.8744 170.6688,978.1713 L170.6688,980.89 Q170.0438,980.3119 169.45,980.0463 Q168.8563,979.765 168.2313,979.765 Q166.8875,979.765 166.2,980.8431 Q165.5125,981.9056 165.5125,983.9994 Q165.5125,986.0931 166.2,987.1713 Q166.8875,988.2338 168.2313,988.2338 Q168.8563,988.2338 169.45,987.9681 Q170.0438,987.6869 170.6688,987.1088 L170.6688,989.8275 Z " fill="#000000"/><text fill="#000000" font-family="sans-serif" font-size="14" lengthAdjust="spacing" textLength="67.7646" x="181.7" y="989.0336">DataType</text><line style="stroke:#181818;stroke-width:0.5;" x1="153.7" x2="251.4646" y1="1000.1869" y2="1000.1869"/><line style="stroke:#181818;stroke-width:0.5;" x1="153.7" x2="251.4646" y1="1008.1869" y2="1008.1869"/></g><g class="entity" data-entity="GMN30" data-source-line="60" data-uid="ent0031" id="entity_GMN30"><path d="M287.38,979.6169 L287.38,988.1869 L252.58,992.1869 L287.38,996.1869 L287.38,1004.7497 A0,0 0 0 0 287.38,1004.7497 L917.7804,1004.7497 A0,0 0 0 0 917.7804,1004.7497 L917.7804,989.6169 L907.7804,979.6169 L287.38,979.6169 A0,0 0 0 0 287.38,979.6169" fill="#FEFFDD" style="stroke:#181818;stroke-width:0.5;"/><path d="M907.7804,979.6169 L907.7804,989.6169 L917.7804,989.6169 L907.7804,979.6169" fill="#FEFFDD" style="stroke:#181818;stroke-width:0.5;"/><text fill="#000000" font-family="sans-serif" font-size="13" lengthAdjust="spacing" textLength="609.4004" x="293.38" y="996.6838">El tipo de dato me parece que s&#237; deber&#237;a ser un atributo de campo, no una entidad separada.</text></g><g class="entity" data-entity="N1" data-source-line="63" data-uid="ent0033" id="entity_N1"><path d="M912.85,55.7269 L912.85,80.8597 L1622.3104,80.8597 L1622.3104,65.7269 L1612.3104,55.7269 L912.85,55.7269" fill="#FEFFDD" style="stroke:#181818;stroke-width:0.5;"/><path d="M1612.3104,55.7269 L1612.3104,65.7269 L1622.3104,65.7269 L1612.3104,55.7269" fill="#FEFFDD" style="stroke:#181818;stroke-width:1;"/><text fill="#000000" font-family="sans-serif" font-size="13" lengthAdjust="spacing" textLength="688.4604" x="918.85" y="72.7938">Me falto trigger, que tiene dos relaciones con la tabla. Tabla lo dispara pero este por lo tanto, la actualiza</text></g><!--link Database to Schema--><g class="link" data-entity-1="Database" data-entity-2="Schema" data-source-line="69" data-uid="lnk34" id="link_Database_Schema"><path codeLine="69" d="M759.4,92.7169 C708.01,115.7969 635.8339,148.1899 587.3539,169.9499" fill="none" id="Database-to-Schema" style="stroke:#181818;stroke-width:1;"/><polygon fill="#181818" points="581.88,172.4069,591.7288,172.3707,586.4416,170.3594,588.4529,165.0722,581.88,172.4069" style="stroke:#181818;stroke-width:1;"/><polygon fill="#000000" points="691.0185,132.911,700.4739,131.8878,698.0667,126.5255,691.0185,132.911" style="stroke:#000000;stroke-width:1;"/><text fill="#000000" font-family="sans-serif" font-size="13" lengthAdjust="spacing" textLength="32.9443" x="704.58" y="135.3638">tiene</text></g><!--link Database to User--><g class="link" data-entity-1="Database" data-entity-2="User" data-source-line="70" data-uid="lnk35" id="link_Database_User"><path codeLine="70" d="M865.11,92.7169 C910.96,112.8469 978.72,142.7369 1037.58,169.2969 C1043.33,171.8869 1043.9842,172.1801 1049.8842,174.8801" fill="none" id="Database-to-User" style="stroke:#181818;stroke-width:1;"/><polygon fill="#181818" points="1055.34,177.3769,1048.8207,169.9945,1050.7935,175.2963,1045.4917,177.269,1055.34,177.3769" style="stroke:#181818;stroke-width:1;"/><polygon fill="#000000" points="978.1487,132.8948,971.078,126.5343,968.6897,131.9051,978.1487,132.8948" style="stroke:#000000;stroke-width:1;"/><text fill="#000000" font-family="sans-serif" font-size="13" lengthAdjust="spacing" textLength="32.9443" x="982.58" y="135.3638">tiene</text></g><!--link User to Role--><g class="link" data-entity-1="User" data-entity-2="Role" data-source-line="72" data-uid="lnk36" id="link_User_Role"><path codeLine="72" d="M1062.05,217.7069 C1052.56,226.7169 1041.84,237.2569 1032.58,247.2969 C1018.91,262.1169 1008.3554,274.7095 996.7454,289.2395" fill="none" id="User-to-Role" style="stroke:#181818;stroke-width:1;"/><polygon fill="#181818" points="993,293.9269,1001.7431,289.3927,996.1212,290.0207,995.4932,284.3988,993,293.9269" style="stroke:#181818;stroke-width:1;"/><polygon fill="#000000" points="1034.2089,259.5559,1042.4778,254.8574,1038.1368,250.8944,1034.2089,259.5559" style="stroke:#000000;stroke-width:1;"/><text fill="#000000" font-family="sans-serif" font-size="13" lengthAdjust="spacing" textLength="32.9443" x="1046.58" y="260.3638">tiene</text></g><!--link User to View--><g class="link" data-entity-1="User" data-entity-2="View" data-source-line="73" data-uid="lnk37" id="link_User_View"><path codeLine="73" d="M1087.58,217.7469 C1087.58,241.6169 1087.58,272.4069 1087.58,296.1969" fill="none" id="User-to-View" style="stroke:#181818;stroke-width:1;"/><polygon fill="#181818" points="1087.58,302.1969,1091.58,293.1969,1087.58,297.1969,1083.58,293.1969,1087.58,302.1969" style="stroke:#181818;stroke-width:1;"/><polygon fill="#000000" points="1092.58,260.8633,1095.5189,251.8182,1089.6411,251.8182,1092.58,260.8633" style="stroke:#000000;stroke-width:1;"/><text fill="#000000" font-family="sans-serif" font-size="13" lengthAdjust="spacing" textLength="91.9775" x="1101.58" y="260.3638">interactuaCon</text></g><!--link Schema to Table--><g class="link" data-entity-1="Schema" data-entity-2="Table" data-source-line="75" data-uid="lnk38" id="link_Schema_Table"><path codeLine="75" d="M552.31,217.7469 C583.82,267.9069 654.2185,380.0061 685.6885,430.1061" fill="none" id="Schema-to-Table" style="stroke:#181818;stroke-width:1;"/><polygon fill="#181818" points="688.88,435.1869,687.48,425.438,686.2204,430.9529,680.7056,429.6933,688.88,435.1869" style="stroke:#181818;stroke-width:1;"/><polygon fill="#000000" points="647.2394,330.7474,644.9173,321.5247,639.9398,324.6509,647.2394,330.7474" style="stroke:#000000;stroke-width:1;"/><text fill="#000000" font-family="sans-serif" font-size="13" lengthAdjust="spacing" textLength="56.2847" x="653.58" y="331.0138">contiene</text></g><!--link View to Table--><g class="link" data-entity-1="View" data-entity-2="Table" data-source-line="76" data-uid="lnk39" id="link_View_Table"><path codeLine="76" d="M1054.37,349.8269 C1048.89,353.0169 1043.18,356.0669 1037.58,358.5969 C933.59,405.5369 807.5115,436.2853 745.1715,449.9153" fill="none" id="View-to-Table" style="stroke:#181818;stroke-width:1;"/><polygon fill="#181818" points="739.31,451.1969,748.9567,453.1822,744.1946,450.1289,747.2479,445.3668,739.31,451.1969" style="stroke:#181818;stroke-width:1;"/><polygon fill="#000000" points="957.823,398.7031,967.3336,398.7136,965.5234,393.1214,957.823,398.7031" style="stroke:#000000;stroke-width:1;"/><text fill="#000000" font-family="sans-serif" font-size="13" lengthAdjust="spacing" textLength="96.7319" x="971.58" y="401.6638">representaUna</text></g><!--link Table to ForeignKey--><g class="link" data-entity-1="Table" data-entity-2="ForeignKey" data-source-line="78" data-uid="lnk40" id="link_Table_ForeignKey"><path codeLine="78" d="M667.97,465.3669 C578.44,477.6969 337.04,512.9969 139.58,560.5969 C134.02,561.9369 134.0497,561.8458 128.3097,563.4458" fill="none" id="Table-to-ForeignKey" style="stroke:#181818;stroke-width:1;"/><polygon fill="#181818" points="122.53,565.0569,132.2735,566.4934,127.3464,563.7143,130.1255,558.7872,122.53,565.0569" style="stroke:#181818;stroke-width:1;"/><polygon fill="#000000" points="355.6606,523.0573,365.0854,524.3315,364.0344,518.5484,355.6606,523.0573" style="stroke:#000000;stroke-width:1;"/><text fill="#000000" font-family="sans-serif" font-size="13" lengthAdjust="spacing" textLength="32.9443" x="369.58" y="526.6638">tiene</text></g><!--link ForeignKey to PrimaryKey--><g class="link" data-entity-1="ForeignKey" data-entity-2="PrimaryKey" data-source-line="79" data-uid="lnk41" id="link_ForeignKey_PrimaryKey"><path codeLine="79" d="M90.86,609.0169 C115.42,630.9069 147.4014,659.4041 171.9214,681.2641" fill="none" id="ForeignKey-to-PrimaryKey" style="stroke:#181818;stroke-width:1;"/><polygon fill="#181818" points="176.4,685.2569,172.3439,676.282,172.6678,681.9296,167.0203,682.2535,176.4,685.2569" style="stroke:#181818;stroke-width:1;"/><polygon fill="#000000" points="151.3126,650.4901,146.5157,642.2779,142.6048,646.6659,151.3126,650.4901" style="stroke:#000000;stroke-width:1;"/><text fill="#000000" font-family="sans-serif" font-size="13" lengthAdjust="spacing" textLength="78.2983" x="156.58" y="651.6638">seRelaciona</text></g><!--link Table to PrimaryKey--><g class="link" data-entity-1="Table" data-entity-2="PrimaryKey" data-source-line="81" data-uid="lnk42" id="link_Table_PrimaryKey"><path codeLine="81" d="M702.26,483.9969 C699.09,516.9369 688.29,576.5169 651.58,608.5969 C524.13,719.9869 442.65,643.9269 278.58,685.5969 C272.97,687.0169 272.9344,686.9669 267.1244,688.6069" fill="none" id="Table-to-PrimaryKey" style="stroke:#181818;stroke-width:1;"/><polygon fill="#181818" points="261.35,690.2369,271.0982,691.6415,266.162,688.8786,268.9249,683.9424,261.35,690.2369" style="stroke:#181818;stroke-width:1;"/><polygon fill="#000000" points="684.0553,586.7909,693.4912,585.6016,690.99,580.2824,684.0553,586.7909" style="stroke:#000000;stroke-width:1;"/><text fill="#000000" font-family="sans-serif" font-size="13" lengthAdjust="spacing" textLength="32.9443" x="697.58" y="589.1638">tiene</text></g><!--link PrimaryKey to Field--><g class="link" data-entity-1="PrimaryKey" data-entity-2="Field" data-source-line="83" data-uid="lnk43" id="link_PrimaryKey_Field"><path codeLine="83" d="M202.58,733.9069 C202.58,754.6669 202.58,779.4669 202.58,804.1169" fill="none" id="PrimaryKey-to-Field" style="stroke:#181818;stroke-width:1;"/><polygon fill="#181818" points="202.58,810.1169,206.58,801.1169,202.58,805.1169,198.58,801.1169,202.58,810.1169" style="stroke:#181818;stroke-width:1;"/><polygon fill="#000000" points="207.58,777.1633,210.5189,768.1182,204.6411,768.1182,207.58,777.1633" style="stroke:#000000;stroke-width:1;"/><text fill="#000000" font-family="sans-serif" font-size="13" lengthAdjust="spacing" textLength="76.9082" x="216.58" y="776.6638">seCompone</text></g><!--link ForeignKey to Field--><g class="link" data-entity-1="ForeignKey" data-entity-2="Field" data-source-line="84" data-uid="lnk44" id="link_ForeignKey_Field"><path codeLine="84" d="M51.07,608.9869 C35.47,639.3469 14.49,693.2069 35.58,733.5969 C60.36,781.0369 108.8429,810.5628 148.7529,828.8028" fill="none" id="ForeignKey-to-Field" style="stroke:#181818;stroke-width:1;"/><polygon fill="#181818" points="154.21,831.2969,147.6871,823.9178,149.6624,829.2185,144.3617,831.1939,154.21,831.2969" style="stroke:#181818;stroke-width:1;"/><polygon fill="#000000" points="42.6105,714.2324,41.623,704.7733,36.2516,707.1602,42.6105,714.2324" style="stroke:#000000;stroke-width:1;"/><text fill="#000000" font-family="sans-serif" font-size="13" lengthAdjust="spacing" textLength="76.9082" x="49.58" y="714.1638">seCompone</text></g><!--link Table to Field--><g class="link" data-entity-1="Table" data-entity-2="Field" data-source-line="86" data-uid="lnk45" id="link_Table_Field"><path codeLine="86" d="M739.09,470.4669 C849.45,502.7569 1172.53,610.2369 1060.58,733.5969 C941.75,864.5369 436.6,755.4769 268.58,810.5969 C262.75,812.5069 262.2716,812.3438 256.5716,815.1538" fill="none" id="Table-to-Field" style="stroke:#181818;stroke-width:1;"/><polygon fill="#181818" points="251.19,817.8069,261.0311,817.4151,255.6747,815.596,257.4937,810.2396,251.19,817.8069" style="stroke:#181818;stroke-width:1;"/><polygon fill="#000000" points="1078.5115,650.0696,1087.5798,647.2034,1084.1632,642.4206,1078.5115,650.0696" style="stroke:#000000;stroke-width:1;"/><text fill="#000000" font-family="sans-serif" font-size="13" lengthAdjust="spacing" textLength="32.9443" x="1091.58" y="651.6638">tiene</text></g><!--link Field to DataType--><g class="link" data-entity-1="Field" data-entity-2="DataType" data-source-line="87" data-uid="lnk46" id="link_Field_DataType"><path codeLine="87" d="M202.58,891.4369 C202.58,916.0469 202.58,940.8669 202.58,961.6869" fill="none" id="Field-to-DataType" style="stroke:#181818;stroke-width:1;"/><polygon fill="#181818" points="202.58,967.6869,206.58,958.6869,202.58,962.6869,198.58,958.6869,202.58,967.6869" style="stroke:#181818;stroke-width:1;"/><polygon fill="#000000" points="207.58,934.7533,210.5189,925.7082,204.6411,925.7082,207.58,934.7533" style="stroke:#000000;stroke-width:1;"/><text fill="#000000" font-family="sans-serif" font-size="13" lengthAdjust="spacing" textLength="32.9443" x="216.58" y="934.2538">tiene</text></g><!--SRC=[TLGxSjim4ErvYXtLicRIgl1COZjDFfCuSdg8MCb8I906mCIAnuT9cS9LZg2BvIq8WfJDi2BsxUVjTsD2nNHfrDwfMf5ckgYKPqzdTELSu_1t86MRe4hJMFP5KGBtj7W3BL6_LA7n2r9U_jHMf0_qEAXzAMyPRgC4JfYSsTy6QdO9AUYg8jyhQTuPomGdC5tHQytryRSdCBZh35lY-nOCg5Bqm_YWLWLRJUAq6ABTU7PpiKHUqFl6K-SxvGn-L5coXbC5Vpx7lBBqZProTztnQOeW32q2IB1TP1yp1AuR5FEX85IlPLSRxr6quZ7ZNmt_d2Ceye8-npID3Q1GXWuLCOxBe6g6YCh6vjoNGWY5yQPkA-vnhWPcIyX5mNVacWefr5jp_6EdV7iw6oINsZMqzIrQRlQMtl4XDZMzyPpZFK5Z9tV9-Zi4kM-ET-pObaOgsXTqxEuj81tdhbHrsypKTF79cLgvGwQKtl-XD47HyXHl99E63A8skGNN5IhHr-Wv7mo_L94hZF_nhurDE4qoA98c79zACpkJRmrNEis4iPhlun_y-E0KUbsyBAfO5AXcpm2DrBnb9nCPC86kTmDcenFyrWsfuCosmpgkw6A4ih4iHsSL2IzUKjjWp1bIZ8sKoGQCb4r1ep-y-cwzp4fsVNDeUQu30oOf1DCAVTAu4bGpjGeJpHG37v-USyiPvFh7GHVI676ZbOOYN2XzmYc6NtnWsgaAjl2ntxDRnYXnQKbZu_icoWqRLYcDuYPEI8MWnejpMLtPBZX5ZGI8nLcAITpBolnISH8_lYhYbo_VsTdvSFBMAVJvAHfFr8WLyIr0F1qZaENnPAmdLm6j5SCKHbJwDLvBMeDvj9fYZblSSbHHtQ2QiEy1KPaiyHX_8XIToLQjqOFhLCjddawqSeeJQGmN5qAyN3HrlEWleisfJ0adE7EDRq7oM6Rm7m00]--></g></svg>